<svg xmlns="http://www.w3.org/2000/svg" width="279.03" height="348.969" viewBox="0 0 279.03 348.969">
<defs>
    <style>
      .cls-1 {
        fill: #f3f526;
        fill-rule: evenodd;
      }
    </style>
  </defs>
  <path id="Shape_3_copy" data-name="Shape 3 copy" class="cls-1" d="M1066.75,459.783c34.24-26.091,49.21-51.377,44.36-75.189-7.63-37.6-60.8-51.81-67.76-53.507l-2.27-.61-39.09-10.5-2.249-.605c-6.912-2.029-60.016-16.367-85.389,12.365-15.428,17.5-15.754,45.326-.959,82.78a129.083,129.083,0,0,0-19.778,228.946l32.853-27.03L911.389,605.88,961.155,572,943.57,559.686l67.65-48.84L968.488,560.58l17.169,12.026-50.076,35.218,17.171,12.017-53.423,26.981a128.609,128.609,0,0,0,29.014,11.737c68.6,18.429,139.107-22.386,157.487-91.17A128.916,128.916,0,0,0,1066.75,459.783Zm-19.18-21.64A128.235,128.235,0,0,0,941.319,406.72c-11.245-27.222-13.2-47-5.431-55.834,10.646-12.087,42.237-7.791,55.877-3.77l2.776,0.746v0l41.51,11.15,0.37,0.1c13.77,3.3,43.26,15.341,46.49,31.247C1085.34,402.366,1072.8,419.333,1047.57,438.143Z" transform="translate(-833 -314.031)"/>
</svg>
