<?xml version="1.0" encoding="utf-8"?>
<!-- Generator: Adobe Illustrator 23.0.0, SVG Export Plug-In . SVG Version: 6.00 Build 0)  -->
<svg version="1.1" id="Layer_1" xmlns="http://www.w3.org/2000/svg" xmlns:xlink="http://www.w3.org/1999/xlink" x="0px" y="0px"
	 viewBox="0 0 206.7 50" style="enable-background:new 0 0 206.7 50;" xml:space="preserve">
<style type="text/css">
	.st0{fill-rule:evenodd;clip-rule:evenodd;stroke:#ffffff;fill:#ffffff;stroke-width:0.9;stroke-miterlimit:10;}
	.st1{fill-rule:evenodd;clip-rule:evenodd;fill:#f3f526;stroke:#f3f526;stroke-width:2;stroke-miterlimit:10;}
</style>
<path id="Luvfit" class="st0" d="M89.7,38h14.1v-4H91.1V14.6h-4.6v20.3c0,0.8,0.3,1.7,0.9,2.3C88,37.7,88.9,38.1,89.7,38L89.7,38z
	 M114.7,38.3h3.5c1.5,0,3-0.3,4.4-1.1c1.3-0.7,2.3-1.7,2.9-3c0.7-1.3,1.1-2.9,1-4.4V14.6H122v15.1c0,1.2-0.3,2.3-1,3.2
	c-0.6,0.8-1.7,1.3-2.7,1.3h-3.5c-1,0-2-0.4-2.6-1.3c-0.7-0.9-1.1-2.1-1-3.2V14.6h-4.6v15.2c0,1.5,0.3,3.1,1,4.4
	c0.6,1.3,1.7,2.3,2.9,3C111.7,38,113.2,38.3,114.7,38.3L114.7,38.3L114.7,38.3z M140.7,38h2.2l9-23.4h-4.8l-6.2,17.5h0l-6.1-17.5
	h-4.8l8.1,21.3C138.5,37.3,139.4,38,140.7,38L140.7,38L140.7,38z M155.2,38h4.6v-9.1h11.6v-4h-11.6v-6.3h12.9v-4h-17.5V38L155.2,38z
	 M175.9,38h4.6V14.6h-4.6V38z M190.9,38h4.6V18.6h5.4v-4h-17.4v4h7.4V38L190.9,38z"/>
<g>
	<path class="st1" d="M23.9,11.4c1.9-1.9,4.6-3,7.3-2.9c2.9,0.1,5.6,1.4,7.5,3.6c0.6,0.7,1.8,0.7,2.5,0c0,0,0,0,0,0
		c3-3.4,7.4-4.6,11.4-3c3.6,1.5,6.1,4.8,6.5,8.7c0.1,1,1,1.7,2,1.6l0,0c0.8,0,1.4-0.7,1.4-1.5c0,0,0-0.1,0-0.1
		C62,12.4,58.7,7.9,54,6c-4.8-1.9-10.2-0.9-14,2.5c-2.3-2-5.3-3.2-8.4-3.4c-3.7-0.2-7.2,1.1-9.9,3.6c-2.5,2.4-4,5.7-4.3,9.1
		c-0.1,1.8,0,3.6,0.6,5.4l-5,0v-8.5c0-0.5-0.4-0.9-0.9-0.9h-1.9c-0.5,0-0.9,0.4-0.9,0.9v19.6c0,0.5,0.4,0.9,0.9,0.9h1.9
		c0.5,0,0.9-0.4,0.9-0.9v-7.7l7.4,0l0,0c0.6,0,1.1-0.2,1.4-0.7c0.3-0.6,0.4-1.3,0.1-1.8C19.9,19.5,20.7,14.6,23.9,11.4z"/>
	<path class="st1" d="M69.6,14.4h-1.9c-0.5,0-0.9,0.4-0.9,0.9v9l-6.8,0c-0.6,0-1.2,0.3-1.5,0.9c-2.7,6.1-8.3,10.7-12.3,13.6
		c-1.8,1.3-3.5,2.5-5.3,3.6l-0.2,0.1c-0.1,0.1-0.3,0.2-0.5,0c-0.7-0.3-1.4-0.7-2-1.2c-0.3-0.2-0.5-0.4-0.8-0.6
		c-1.8-1.2-3.3-2.3-4.8-3.4c-2.6-2-5-4.4-7.1-7c-0.5-0.6-1.4-0.8-2.1-0.3c0,0-0.1,0-0.1,0.1c-0.8,0.6-1,1.8-0.3,2.6l0,0
		c2,2.5,4.4,4.8,7,6.8c1.6,1.3,3.3,2.6,5.1,3.7c0.9,0.6,1.9,1.2,2.8,1.8l0.2,0.1c0.7,0.5,1.5,0.8,2.4,0.9c0.2,0,0.4,0,0.6,0
		c0.7-0.2,1.5-0.6,2.1-1.1c0.2-0.1,0.3-0.2,0.5-0.3c1.1-0.6,2.1-1.4,3.1-2.1c2.7-1.9,5.2-3.9,7.6-6.2c3-2.9,5.2-5.8,6.6-8.6l5.7,0
		v7.1c0,0.5,0.4,0.9,0.9,0.9h1.9c0.5,0,0.9-0.4,0.9-0.9V15.3C70.5,14.8,70.1,14.4,69.6,14.4z"/>
	<path class="st1" d="M76.5,21.1h-1.9l0,0c-0.5,0-0.9,0.4-0.9,0.9v8.9c0,0.5,0.4,0.9,0.9,0.9h1.9c0.5,0,0.9-0.4,0.9-0.9V22
		C77.5,21.5,77.1,21.1,76.5,21.1z"/>
	<path class="st1" d="M5.1,19.1H3.2l0,0c-0.5,0-0.9,0.4-0.9,0.9v8.9c0,0.5,0.4,0.9,0.9,0.9h1.9c0.5,0,0.9-0.4,0.9-0.9V20
		C6.1,19.5,5.6,19.1,5.1,19.1z"/>
</g>
</svg>
